HIERARCHY
ROOT Junyuan_V1:Solving:Hips
{
	OFFSET 0.000000 0.000000 0.000000
	CHANNELS 6 Xposition Yposition Zposition Xrotation Yrotation Zrotation
	JOINT Junyuan_V1:Solving:Spine
	{
		OFFSET 0.000000 -12.985630 2.462989
		CHANNELS 6 Xposition Yposition Zposition Xrotation Yrotation Zrotation
		JOINT Junyuan_V1:Solving:Spine1
		{
			OFFSET 0.000000 -8.692390 1.532706
			CHANNELS 6 Xposition Yposition Zposition Xrotation Yrotation Zrotation
			JOINT Junyuan_V1:Solving:Spine2
			{
				OFFSET 0.000000 -8.792902 0.769282
				CHANNELS 6 Xposition Yposition Zposition Xrotation Yrotation Zrotation
				JOINT Junyuan_V1:Solving:Spine3
				{
					OFFSET 0.000000 -8.826483 0.000000
					CHANNELS 6 Xposition Yposition Zposition Xrotation Yrotation Zrotation
					JOINT Junyuan_V1:Solving:Neck
					{
						OFFSET 0.000000 -11.348343 -1.134832
						CHANNELS 6 Xposition Yposition Zposition Xrotation Yrotation Zrotation
						JOINT Junyuan_V1:Solving:Neck1
						{
							OFFSET 0.000000 -7.624485 -0.667056
							CHANNELS 6 Xposition Yposition Zposition Xrotation Yrotation Zrotation
							JOINT Junyuan_V1:Solving:Head
							{
								OFFSET 0.000000 -7.537346 -1.329035
								CHANNELS 6 Xposition Yposition Zposition Xrotation Yrotation Zrotation
								JOINT Junyuan_V1:Solving:HeadEnd
								{
									OFFSET 0.000000 -9.728073 0.000003
									CHANNELS 6 Xposition Yposition Zposition Xrotation Yrotation Zrotation
									End Site
									{
										OFFSET 0.000000 -9.728081 0.000002
									}
								}
							}
						}
					}
					JOINT Junyuan_V1:Solving:RightShoulder
					{
						OFFSET 0.000000 -8.105961 -5.517343
						CHANNELS 6 Xposition Yposition Zposition Xrotation Yrotation Zrotation
						JOINT Junyuan_V1:Solving:RightArm
						{
							OFFSET -18.898018 -0.000008 0.000000
							CHANNELS 6 Xposition Yposition Zposition Xrotation Yrotation Zrotation
							JOINT Junyuan_V1:Solving:RightForeArm
							{
								OFFSET -28.740982 -0.000008 0.000000
								CHANNELS 6 Xposition Yposition Zposition Xrotation Yrotation Zrotation
								JOINT Junyuan_V1:Solving:RightHand
								{
									OFFSET -20.953522 -0.000008 0.000000
									CHANNELS 6 Xposition Yposition Zposition Xrotation Yrotation Zrotation
									JOINT Junyuan_V1:Solving:RightHandThumb1
									{
										OFFSET -4.628059 2.916191 -3.441377
										CHANNELS 6 Xposition Yposition Zposition Xrotation Yrotation Zrotation
										End Site
										{
											OFFSET -6.617699 -0.000004 -6.678891
										}
									}
									JOINT Junyuan_V1:Solving:RightHandMiddle1
									{
										OFFSET -12.341492 -0.000004 0.079112
										CHANNELS 6 Xposition Yposition Zposition Xrotation Yrotation Zrotation
										End Site
										{
											OFFSET -9.402214 -0.000004 0.000000
										}
									}
								}
							}
						}
					}
					JOINT Junyuan_V1:Solving:LeftShoulder
					{
						OFFSET 0.000000 -8.105961 -5.517343
						CHANNELS 6 Xposition Yposition Zposition Xrotation Yrotation Zrotation
						JOINT Junyuan_V1:Solving:LeftArm
						{
							OFFSET 18.898018 -0.000008 0.000000
							CHANNELS 6 Xposition Yposition Zposition Xrotation Yrotation Zrotation
							JOINT Junyuan_V1:Solving:LeftForeArm
							{
								OFFSET 28.740982 -0.000008 0.000000
								CHANNELS 6 Xposition Yposition Zposition Xrotation Yrotation Zrotation
								JOINT Junyuan_V1:Solving:LeftHand
								{
									OFFSET 20.953522 -0.000008 0.000000
									CHANNELS 6 Xposition Yposition Zposition Xrotation Yrotation Zrotation
									JOINT Junyuan_V1:Solving:LeftHandThumb1
									{
										OFFSET 4.628059 2.916191 -3.441377
										CHANNELS 6 Xposition Yposition Zposition Xrotation Yrotation Zrotation
										End Site
										{
											OFFSET 6.617699 -0.000004 -6.678891
										}
									}
									JOINT Junyuan_V1:Solving:LeftHandMiddle1
									{
										OFFSET 12.341492 -0.000004 0.079112
										CHANNELS 6 Xposition Yposition Zposition Xrotation Yrotation Zrotation
										End Site
										{
											OFFSET 9.402214 -0.000004 0.000000
										}
									}
								}
							}
						}
					}
				}
			}
		}
	}
	JOINT Junyuan_V1:Solving:RightUpLeg
	{
		OFFSET -11.141669 0.000000 0.000000
		CHANNELS 6 Xposition Yposition Zposition Xrotation Yrotation Zrotation
		JOINT Junyuan_V1:Solving:RightLeg
		{
			OFFSET 0.000000 42.399242 -0.000006
			CHANNELS 6 Xposition Yposition Zposition Xrotation Yrotation Zrotation
			JOINT Junyuan_V1:Solving:RightFoot
			{
				OFFSET 0.000000 39.245022 -0.000006
				CHANNELS 6 Xposition Yposition Zposition Xrotation Yrotation Zrotation
				JOINT Junyuan_V1:Solving:RightForeFoot
				{
					OFFSET 0.000000 3.261009 -0.000000
					CHANNELS 6 Xposition Yposition Zposition Xrotation Yrotation Zrotation
					JOINT Junyuan_V1:Solving:RightToeBase
					{
						OFFSET 0.000000 0.000000 -12.771147
						CHANNELS 6 Xposition Yposition Zposition Xrotation Yrotation Zrotation
						JOINT Junyuan_V1:Solving:RightToeBaseEnd
						{
							OFFSET 0.000000 0.000000 -4.049008
							CHANNELS 6 Xposition Yposition Zposition Xrotation Yrotation Zrotation
							End Site
							{
								OFFSET 0.000000 -4.049011 0.000000
							}
						}
					}
				}
			}
		}
	}
	JOINT Junyuan_V1:Solving:LeftUpLeg
	{
		OFFSET 11.141669 0.000000 0.000000
		CHANNELS 6 Xposition Yposition Zposition Xrotation Yrotation Zrotation
		JOINT Junyuan_V1:Solving:LeftLeg
		{
			OFFSET 0.000000 42.399242 -0.000006
			CHANNELS 6 Xposition Yposition Zposition Xrotation Yrotation Zrotation
			JOINT Junyuan_V1:Solving:LeftFoot
			{
				OFFSET 0.000000 39.245022 -0.000006
				CHANNELS 6 Xposition Yposition Zposition Xrotation Yrotation Zrotation
				JOINT Junyuan_V1:Solving:LeftForeFoot
				{
					OFFSET 0.000000 3.261009 -0.000000
					CHANNELS 6 Xposition Yposition Zposition Xrotation Yrotation Zrotation
					JOINT Junyuan_V1:Solving:LeftToeBase
					{
						OFFSET 0.000000 0.000000 -12.771147
						CHANNELS 6 Xposition Yposition Zposition Xrotation Yrotation Zrotation
						JOINT Junyuan_V1:Solving:LeftToeBaseEnd
						{
							OFFSET 0.000000 0.000000 -2.960146
							CHANNELS 6 Xposition Yposition Zposition Xrotation Yrotation Zrotation
							End Site
							{
								OFFSET 0.000000 -2.960144 0.000002
							}
						}
					}
				}
			}
		}
	}
}
MOTION
Frames: 4
Frame Time: 0.041667
10.019774 31.825937 -90.064514 88.112439 -179.673850 1.009334 -0.000000 -12.985639 2.462984 6.956857 0.100919 -2.632640 0.000000 -8.692375 1.532706 -1.240896 -0.105383 0.332535 -0.000001 -8.792881 0.769278 -4.923170 0.781163 -0.383223 0.000001 -8.826508 0.000004 -1.227123 0.209341 -1.305685 -0.000001 -11.348351 -1.134828 -1.631939 0.558496 3.188724 0.000000 -7.624418 -0.667056 3.634078 0.445948 -0.291330 0.000001 -7.537335 -1.329031 11.014016 0.072556 -0.496237 0.000000 -9.728035 -0.000000 0.000001 -0.000000 -0.000000 -0.000002 -8.105961 -5.517341 -0.000005 15.417742 12.961906 -18.898010 -0.000003 -0.000003 1.256065 -30.454348 -89.071404 -28.740971 -0.000015 0.000008 -1.560200 -23.822233 -0.630295 -20.953518 0.000008 -0.000004 0.157996 1.024720 -8.765448 -4.628075 2.916206 -3.441373 -0.000004 0.000003 0.000000 -12.341492 0.000004 0.079111 -0.000004 0.000001 -0.000000 -0.000004 -8.105957 -5.517342 -0.000001 -10.804263 -12.037659 18.898012 -0.000007 0.000003 -7.803864 45.468450 95.972812 28.740965 0.000001 0.000004 3.739013 25.430703 -1.607462 20.953495 -0.000000 0.000003 0.049473 2.502495 -1.132772 4.628059 2.916202 -3.441371 -0.000007 -0.000009 -0.000001 12.341476 0.000001 0.079114 -0.000003 -0.000004 -0.000000 -11.141667 0.000019 -0.000005 0.502301 6.530100 -3.347583 0.000003 42.399239 -0.000006 8.269339 0.000001 0.000000 0.000002 39.245018 0.000004 -3.465903 -8.406097 -4.226455 -0.000003 3.261017 0.000012 0.000001 0.000000 -0.000000 -0.000003 0.000009 -12.771150 8.066528 0.000002 0.000002 0.000000 0.000001 -4.049016 0.000003 -0.000000 0.000001 11.141666 -0.000008 -0.000005 -4.423693 -13.000358 -1.697609 -0.000000 42.399250 -0.000008 9.722570 0.000002 -0.000001 -0.000003 39.245014 -0.000006 -2.215547 -2.234339 -19.348698 -0.000001 3.261002 -0.000005 0.000001 0.000003 0.000003 -0.000003 0.000019 -12.771141 -1.487571 -0.000001 0.000002 0.000000 -0.000001 -2.960151 -0.000001 -0.000002 -0.000001 
10.038725 31.819769 -90.071480 88.104263 -179.698179 0.964746 -0.000001 -12.985599 2.462987 6.988195 0.076540 -2.655292 0.000001 -8.692401 1.532705 -1.234481 -0.104013 0.332062 0.000000 -8.792903 0.769285 -4.921059 0.794318 -0.383186 0.000001 -8.826495 -0.000006 -1.220760 0.213421 -1.295479 0.000000 -11.348360 -1.134819 -1.606673 0.520717 3.175073 -0.000001 -7.624466 -0.667056 3.608530 0.403690 -0.251706 -0.000000 -7.537338 -1.329030 11.020911 0.064468 -0.451917 -0.000000 -9.728020 0.000007 0.000001 -0.000000 0.000000 0.000001 -8.105953 -5.517324 -0.000009 15.379790 12.999972 -18.898006 -0.000006 0.000010 1.298169 -30.750779 -88.913757 -28.740984 -0.000012 -0.000006 -1.452512 -23.938968 -0.589485 -20.953501 -0.000006 0.000010 0.147646 0.941722 -8.910957 -4.628062 2.916195 -3.441376 -0.000002 -0.000000 -0.000003 -12.341468 0.000002 0.079102 -0.000002 -0.000002 0.000001 -0.000000 -8.105953 -5.517326 -0.000007 -10.746952 -12.070125 18.898012 -0.000008 0.000011 -7.950502 45.174905 96.039420 28.740984 -0.000009 -0.000003 4.080162 25.372633 -1.750785 20.953524 -0.000002 0.000005 0.036157 2.518951 -0.822504 4.628030 2.916199 -3.441358 -0.000007 -0.000002 0.000002 12.341445 0.000000 0.079117 -0.000010 -0.000001 -0.000001 -11.141674 0.000027 0.000001 0.505389 6.586626 -3.309630 -0.000003 42.399246 0.000002 8.277627 -0.000001 0.000000 -0.000008 39.245026 -0.000004 -3.504156 -8.513009 -4.175642 0.000001 3.261009 0.000007 0.000000 -0.000000 0.000000 -0.000003 0.000019 -12.771142 8.136134 0.000002 0.000001 0.000006 0.000001 -4.049016 0.000003 0.000000 0.000000 11.141666 0.000009 -0.000001 -4.719239 -13.107091 -1.740375 -0.000003 42.399246 -0.000007 10.253603 -0.000001 -0.000001 -0.000010 39.245022 -0.000001 -2.246106 -2.148843 -19.335186 0.000001 3.261009 -0.000008 0.000000 -0.000003 0.000002 -0.000003 0.000017 -12.771141 -1.615500 0.000003 0.000006 0.000000 0.000001 -2.960149 0.000001 0.000000 0.000003 
10.065093 31.822886 -90.077309 88.081102 -179.721497 0.948775 0.000001 -12.985623 2.462992 7.016645 0.056724 -2.703987 0.000000 -8.692389 1.532697 -1.231530 -0.102810 0.335030 0.000002 -8.792917 0.769284 -4.918912 0.799620 -0.385427 0.000004 -8.826500 -0.000002 -1.211026 0.210925 -1.275618 -0.000002 -11.348337 -1.134843 -1.596665 0.502058 3.185533 -0.000000 -7.624496 -0.667053 3.591943 0.370868 -0.241145 -0.000001 -7.537316 -1.329018 11.028047 0.059950 -0.418940 -0.000002 -9.728104 0.000002 -0.000002 -0.000000 0.000000 -0.000001 -8.105965 -5.517350 -0.000006 15.348238 13.029736 -18.898018 -0.000005 0.000008 1.358195 -31.072484 -88.771921 -28.740967 -0.000017 0.000010 -1.374325 -24.107875 -0.561443 -20.953512 0.000014 -0.000002 0.130174 0.830451 -8.909439 -4.628071 2.916212 -3.441370 0.000000 0.000007 -0.000004 -12.341499 0.000005 0.079109 -0.000001 0.000004 0.000001 -0.000001 -8.105961 -5.517350 -0.000003 -10.755845 -12.090956 18.898010 0.000007 0.000002 -8.093428 45.259610 96.042910 28.740993 -0.000000 0.000010 4.149164 25.429902 -1.784226 20.953531 0.000004 -0.000004 0.031505 2.453409 -0.735921 4.628099 2.916197 -3.441373 0.000010 -0.000003 0.000002 12.341497 -0.000007 0.079116 0.000012 0.000000 -0.000003 -11.141671 0.000025 -0.000000 0.487514 6.526464 -3.314417 0.000005 42.399242 -0.000006 8.255797 0.000000 -0.000000 -0.000001 39.245018 0.000002 -3.475532 -8.460690 -4.137179 -0.000002 3.261009 0.000005 -0.000000 -0.000000 -0.000001 -0.000001 0.000014 -12.771157 8.116853 0.000001 0.000002 0.000000 0.000001 -4.049007 0.000004 0.000000 -0.000000 11.141669 0.000004 0.000001 -5.054856 -13.151951 -1.824462 -0.000002 42.399250 -0.000009 10.798066 0.000001 -0.000001 -0.000007 39.245010 -0.000011 -2.293342 -2.089798 -19.270265 0.000002 3.261009 0.000000 0.000002 0.000001 0.000000 -0.000002 -0.000004 -12.771143 -1.712428 0.000002 0.000002 -0.000002 -0.000006 -2.960147 0.000002 -0.000003 0.000004 
10.075890 31.821011 -90.087502 88.072154 -179.737575 0.898984 0.000000 -12.985631 2.462996 7.049102 0.029145 -2.723155 0.000001 -8.692384 1.532697 -1.229062 -0.102366 0.334597 -0.000001 -8.792882 0.769273 -4.911643 0.795852 -0.385655 0.000002 -8.826493 0.000008 -1.192387 0.208082 -1.256099 -0.000002 -11.348297 -1.134832 -1.579952 0.484038 3.204697 -0.000003 -7.624447 -0.667046 3.562760 0.352083 -0.214177 -0.000002 -7.537379 -1.329038 11.035754 0.056501 -0.401082 -0.000001 -9.728065 -0.000015 -0.000002 -0.000000 -0.000000 -0.000002 -8.105919 -5.517340 -0.000007 15.304203 13.059484 -18.898001 0.000002 -0.000001 1.410694 -31.307777 -88.654817 -28.740974 -0.000022 0.000003 -1.229840 -24.239336 -0.504973 -20.953503 0.000007 0.000002 0.106675 0.682272 -8.886763 -4.628073 2.916199 -3.441372 -0.000003 -0.000002 0.000002 -12.341475 -0.000008 0.079110 -0.000003 0.000002 0.000001 0.000000 -8.105915 -5.517340 -0.000004 -10.718293 -12.133121 18.898012 0.000007 0.000008 -8.307776 44.884796 96.200496 28.740967 -0.000005 -0.000000 4.657051 25.226054 -1.988376 20.953516 0.000006 0.000002 0.024326 2.547229 -0.547249 4.628076 2.916207 -3.441364 0.000009 0.000002 0.000002 12.341476 0.000003 0.079117 0.000002 0.000005 0.000000 -11.141667 -0.000006 0.000002 0.475058 6.534226 -3.272404 0.000007 42.399250 -0.000014 8.255612 -0.000002 0.000001 -0.000002 39.245026 -0.000010 -3.462929 -8.447292 -4.126905 -0.000003 3.261009 0.000008 -0.000000 0.000000 0.000000 -0.000003 0.000007 -12.771148 8.106172 0.000002 -0.000001 0.000002 0.000001 -4.049013 0.000004 0.000000 -0.000001 11.141666 0.000002 0.000005 -5.386574 -13.239932 -1.864968 -0.000000 42.399231 -0.000007 11.380897 0.000001 -0.000001 -0.000006 39.245026 -0.000003 -2.291268 -2.044023 -19.222031 0.000001 3.261010 -0.000009 0.000000 -0.000000 0.000001 -0.000001 -0.000000 -12.771152 -1.872096 0.000005 0.000002 0.000003 -0.000015 -2.960146 0.000000 -0.000001 0.000002 
